<svg width="120" height="120" viewBox="0 0 120 120" fill="none" xmlns="http://www.w3.org/2000/svg">
<g id="empty_plate" clip-path="url(#clip0_9251_25257)">
<g id="Group">
<g id="Group_2">
<path id="Vector" d="M100.452 88.7503C90.3495 78.5799 126.179 62.6864 113.979 17.2535C104.445 -18.2472 77.5854 11.0269 58.2082 17.2847C50.28 19.845 43.4278 16.7192 36.1359 14.0785C26.5505 10.6069 14.8676 15.4578 8.1511 22.9739C-5.21156 37.9275 14.2059 49.8642 14.1124 64.429C14.0131 79.946 2.12766 83.0609 4.30008 95.0585C7.97133 115.335 37.0207 112.288 55.0102 111.562C69.041 110.996 81.4303 119.371 94.875 119.989C103.215 120.372 113.994 110.962 112.723 102.139C111.839 96.0033 104.82 93.1477 100.452 88.7503Z" fill="url(#paint0_linear_9251_25257)"></path>
</g>
<g id="Group_3">
<g id="Group_4">
<g id="Group_5">
<g id="Group_6">
<g id="Group_7">
<g id="Group_8">
<path id="Vector_2" d="M69.1102 92.1511H27.6506C25.3542 92.1511 23.3829 90.5166 22.958 88.2598L22.2846 84.6841H74.4762L73.8028 88.2598C73.3777 90.5166 71.4066 92.1511 69.1102 92.1511Z" fill="white"></path>
<path id="Vector (Stroke)" fill-rule="evenodd" clip-rule="evenodd" d="M21.3826 83.9361C21.6052 83.6676 21.9358 83.5123 22.2846 83.5123H74.4762C74.825 83.5123 75.1556 83.6676 75.3783 83.9361C75.6009 84.2046 75.6924 84.5583 75.6278 84.901L74.9545 88.4766L74.9544 88.4767C74.425 91.2873 71.9702 93.323 69.1102 93.323H27.6506C24.7907 93.323 22.3356 91.2874 21.8063 88.4766C21.8063 88.4766 21.8063 88.4766 21.8063 88.4766L21.133 84.901C21.0684 84.5583 21.1599 84.2046 21.3826 83.9361ZM23.6978 85.856L24.1096 88.0429L24.1096 88.0429C24.4302 89.7458 25.9177 90.9792 27.6506 90.9792H69.1102C70.843 90.9792 72.3303 89.7459 72.6512 88.0429C72.6512 88.0429 72.6512 88.0428 72.6512 88.0428L73.063 85.856H23.6978Z" fill="#606C5D"></path>
</g>
<g id="Group_9">
<path id="Vector_3" d="M80.4776 84.0987L87.7833 74.7127C88.3824 73.943 87.8339 72.821 86.8585 72.821H9.90214C8.92667 72.821 8.37823 73.943 8.9773 74.7127L16.283 84.0987C17.6513 85.8568 19.7546 86.885 21.9823 86.885H74.7783C77.0063 86.885 79.1093 85.8568 80.4776 84.0987Z" fill="#BFCCB5"></path>
<path id="Vector_4" d="M37.467 86.8852H28.1576L17.2123 72.8204H26.5217L37.467 86.8852Z" fill="white"></path>
<path id="Vector (Stroke)_2" fill-rule="evenodd" clip-rule="evenodd" d="M8.05249 75.4325C6.85435 73.8931 7.9513 71.6492 9.90211 71.6492H86.8585C88.8093 71.6492 89.9062 73.8931 88.7081 75.4325L81.4024 84.8185C79.8121 86.8618 77.3678 88.0568 74.7783 88.0568H21.9823C19.3931 88.0568 16.9485 86.8618 15.3582 84.8185C15.3582 84.8185 15.3582 84.8185 15.3582 84.8185L8.05249 75.4325ZM9.90206 73.9929L17.2077 83.3789C18.354 84.8517 20.116 85.7131 21.9823 85.7131H74.7783C76.6448 85.7131 78.4065 84.8517 79.5528 83.3789L86.8585 73.9929H9.90206C9.90208 73.9929 9.90204 73.9929 9.90206 73.9929Z" fill="#606C5D"></path>
</g>
</g>
</g>
<g id="Group_10">
<g id="Group_11">
<path id="Vector_5" d="M78.5224 87.7067L79.2246 91.0353C79.3617 91.6856 79.9357 92.1514 80.6006 92.1514H95.4649C96.1296 92.1514 96.7036 91.6859 96.8409 91.0353L97.5431 87.7067H78.5224Z" fill="#BFCCB5"></path>
</g>
<g id="Group_12">
<path id="Vector (Stroke)_3" fill-rule="evenodd" clip-rule="evenodd" d="M77.6123 86.9685C77.8348 86.6941 78.1692 86.5348 78.5224 86.5348H97.5431C97.8964 86.5348 98.2308 86.6941 98.4533 86.9685C98.6758 87.2428 98.7627 87.6029 98.6898 87.9486L97.9876 91.2771C97.7358 92.4696 96.6837 93.3232 95.4649 93.3232H80.6006C79.3817 93.3232 78.3294 92.4696 78.078 91.2771C78.0779 91.2771 78.078 91.2772 78.078 91.2771L77.3758 87.9486C77.3029 87.6029 77.3897 87.2428 77.6123 86.9685ZM79.9673 88.8785L80.3712 90.7934C80.3941 90.9016 80.4897 90.9795 80.6006 90.9795H95.4649C95.5755 90.9795 95.6713 90.9021 95.6943 90.7934C95.6943 90.7934 95.6943 90.7933 95.6943 90.7934L96.0982 88.8785H79.9673Z" fill="#606C5D"></path>
</g>
<g id="Group_13">
<path id="Vector_6" d="M96.6056 87.9323H79.4601C78.1657 87.9323 77.1164 86.883 77.1164 85.5886V63.0966C77.1164 62.4494 77.6412 61.9247 78.2883 61.9247H97.7775C98.4246 61.9247 98.9494 62.4494 98.9494 63.0966V85.5886C98.9494 86.883 97.8998 87.9323 96.6056 87.9323Z" fill="#BFCCB5"></path>
<path id="Vector_7" d="M77.1161 82.6662V85.5888C77.1161 86.8833 78.1654 87.9326 79.4599 87.9326H96.6054C97.8998 87.9326 98.9491 86.8833 98.9491 85.5888V82.6662H77.1161Z" fill="white"></path>
<path id="Vector (Stroke)_4" fill-rule="evenodd" clip-rule="evenodd" d="M75.9445 63.0968C75.9445 61.8025 76.994 60.7531 78.2883 60.7531H97.7775C99.0718 60.7531 100.121 61.8025 100.121 63.0968V64.5455C100.121 65.1927 99.5966 65.7173 98.9494 65.7173C98.3022 65.7173 97.7775 65.1927 97.7775 64.5455V63.0968H78.2883V85.5888C78.2883 86.2361 78.8129 86.7607 79.4601 86.7607H96.6056C97.2528 86.7607 97.7775 87.2854 97.7775 87.9326C97.7775 88.5798 97.2528 89.1045 96.6056 89.1045H79.4601C77.5185 89.1045 75.9445 87.5305 75.9445 85.5888V63.0968Z" fill="#606C5D"></path>
</g>
</g>
</g>
<g id="Group_14">
<g id="Group_15">
<g id="Group_16">
<path id="Vector_8" d="M90.8454 87.7066L91.5476 91.0352C91.6847 91.6856 92.2587 92.1513 92.9236 92.1513H107.788C108.453 92.1513 109.027 91.6858 109.164 91.0352L109.866 87.7066H90.8454Z" fill="white"></path>
</g>
<g id="Group_17">
<path id="Vector (Stroke)_5" fill-rule="evenodd" clip-rule="evenodd" d="M89.9353 86.9684C90.1578 86.6941 90.4922 86.5347 90.8454 86.5347H109.866C110.219 86.5347 110.554 86.6941 110.776 86.9684C110.999 87.2428 111.086 87.6029 111.013 87.9485L110.311 91.2771C110.059 92.4696 109.007 93.3232 107.788 93.3232H92.9236C91.7047 93.3232 90.6524 92.4695 90.401 91.2771C90.4009 91.277 90.401 91.2771 90.401 91.2771L89.6988 87.9485C89.6259 87.6029 89.7127 87.2428 89.9353 86.9684ZM92.2903 88.8785L92.6942 90.7933C92.7171 90.9016 92.8127 90.9794 92.9236 90.9794H107.788C107.898 90.9794 107.994 90.902 108.017 90.7933C108.017 90.7934 108.017 90.7933 108.017 90.7933L108.421 88.8785H92.2903Z" fill="#606C5D"></path>
</g>
<g id="Group_18">
<path id="Vector_9" d="M108.928 87.9323H91.7829C90.4884 87.9323 89.4391 86.883 89.4391 85.5886V72.4716C89.4391 71.8244 89.9639 71.2997 90.611 71.2997H110.1C110.747 71.2997 111.272 71.8244 111.272 72.4716V85.5886C111.272 86.883 110.223 87.9323 108.928 87.9323Z" fill="white"></path>
<path id="Vector_10" d="M89.4391 82.6662V85.5888C89.4391 86.8833 90.4884 87.9326 91.7829 87.9326H108.928C110.223 87.9326 111.272 86.8833 111.272 85.5888V82.6662H89.4391Z" fill="#BFCCB5"></path>
<path id="Vector (Stroke)_6" fill-rule="evenodd" clip-rule="evenodd" d="M88.2673 72.4716C88.2673 71.1772 89.3167 70.1278 90.611 70.1278H110.1C111.395 70.1278 112.444 71.1772 112.444 72.4716V85.5886C112.444 87.5303 110.87 89.1042 108.928 89.1042H91.7829C89.8412 89.1042 88.2673 87.5303 88.2673 85.5886V72.4716ZM110.1 72.4716H90.611V85.5886C90.611 86.2358 91.1357 86.7605 91.7829 86.7605H108.928C109.576 86.7605 110.1 86.2358 110.1 85.5886V72.4716Z" fill="#606C5D"></path>
</g>
</g>
</g>
</g>
<path id="Vector (Stroke)_7" fill-rule="evenodd" clip-rule="evenodd" d="M101.41 25.9533C100.698 25.9533 100.121 26.5304 100.121 27.2424C100.121 27.9543 100.698 28.5314 101.41 28.5314C102.122 28.5314 102.699 27.9543 102.699 27.2424C102.699 26.5304 102.122 25.9533 101.41 25.9533ZM97.7775 27.2424C97.7775 25.236 99.404 23.6096 101.41 23.6096C103.417 23.6096 105.043 25.236 105.043 27.2424C105.043 29.2487 103.417 30.8752 101.41 30.8752C99.404 30.8752 97.7775 29.2487 97.7775 27.2424Z" fill="#FFCF9D"></path>
<path id="Vector (Stroke)_8" fill-rule="evenodd" clip-rule="evenodd" d="M31.2792 36.532C30.5673 36.532 29.9902 37.1092 29.9902 37.8211C29.9902 38.533 30.5673 39.1102 31.2792 39.1102C31.9912 39.1102 32.5683 38.533 32.5683 37.8211C32.5683 37.1092 31.9912 36.532 31.2792 36.532ZM27.6464 37.8211C27.6464 35.8148 29.2729 34.1883 31.2792 34.1883C33.2856 34.1883 34.912 35.8148 34.912 37.8211C34.912 39.8275 33.2856 41.4539 31.2792 41.4539C29.2729 41.4539 27.6464 39.8275 27.6464 37.8211Z" fill="#FFCF9D"></path>
<path id="Vector (Stroke)_9" fill-rule="evenodd" clip-rule="evenodd" d="M53.2366 100.541C52.5247 100.541 51.9476 101.118 51.9476 101.83C51.9476 102.542 52.5247 103.119 53.2366 103.119C53.9486 103.119 54.5257 102.542 54.5257 101.83C54.5257 101.118 53.9486 100.541 53.2366 100.541ZM49.6038 101.83C49.6038 99.8233 51.2303 98.1968 53.2366 98.1968C55.243 98.1968 56.8694 99.8233 56.8694 101.83C56.8694 103.836 55.243 105.462 53.2366 105.462C51.2303 105.462 49.6038 103.836 49.6038 101.83Z" fill="#FFCF9D"></path>
<path id="Vector (Stroke)_10" fill-rule="evenodd" clip-rule="evenodd" d="M107.805 37.6942C108.263 37.2365 109.005 37.2365 109.462 37.6942L111.572 39.8036C112.029 40.2612 112.029 41.0032 111.572 41.4608C111.114 41.9185 110.372 41.9185 109.914 41.4608L108.634 40.1801L107.353 41.4608C106.895 41.9185 106.153 41.9185 105.696 41.4608C105.238 41.0032 105.238 40.2612 105.696 39.8036L107.805 37.6942Z" fill="#FFCF9D"></path>
<path id="Vector (Stroke)_11" fill-rule="evenodd" clip-rule="evenodd" d="M68.293 103.739C68.7506 103.281 69.4926 103.281 69.9503 103.739L72.0597 105.848C72.5173 106.306 72.5173 107.048 72.0597 107.505C71.602 107.963 70.86 107.963 70.4024 107.505L69.1216 106.225L67.8409 107.505C67.3833 107.963 66.6413 107.963 66.1836 107.505C65.726 107.048 65.726 106.306 66.1836 105.848L68.293 103.739Z" fill="#FFCF9D"></path>
</g>
</g>
</g>
<defs>
<linearGradient id="paint0_linear_9251_25257" x1="15.559" y1="110.936" x2="114.96" y2="11.5357" gradientUnits="userSpaceOnUse">
<stop id="Vector_stop1" stop-color="#F9FBE7" stop-opacity="0"></stop>
<stop id="Vector_stop2" offset="1" stop-color="#FFF8D6"></stop>
</linearGradient>
<clipPath id="clip0_9251_25257">
<rect width="120" height="120" fill="white"></rect>
</clipPath>
</defs>
</svg>